<?xml version="1.0" encoding="UTF-8" standalone="no"?>
<!-- Created with Inkscape (http://www.inkscape.org/) -->

<svg
   xmlns:dc="http://purl.org/dc/elements/1.1/"
   xmlns:cc="http://creativecommons.org/ns#"
   xmlns:rdf="http://www.w3.org/1999/02/22-rdf-syntax-ns#"
   xmlns:svg="http://www.w3.org/2000/svg"
   xmlns="http://www.w3.org/2000/svg"
   xmlns:sodipodi="http://sodipodi.sourceforge.net/DTD/sodipodi-0.dtd"
   xmlns:inkscape="http://www.inkscape.org/namespaces/inkscape"
   width="256"
   height="256"
   id="svg2"
   version="1.1"
   inkscape:version="0.48.1 r9760"
   sodipodi:docname="logo.svg">
  <defs
     id="defs4">
    <inkscape:path-effect
       effect="spiro"
       id="path-effect4764"
       is_visible="true" />
    <inkscape:path-effect
       effect="spiro"
       id="path-effect4749"
       is_visible="true" />
    <inkscape:path-effect
       effect="spiro"
       id="path-effect4742"
       is_visible="true" />
    <marker
       inkscape:stockid="Arrow1Lstart"
       orient="auto"
       refY="0.0"
       refX="0.0"
       id="Arrow1Lstart"
       style="overflow:visible">
      <path
         id="path4112"
         d="M 0.0,0.0 L 5.0,-5.0 L -12.5,0.0 L 5.0,5.0 L 0.0,0.0 z "
         style="fill-rule:evenodd;stroke:#000000;stroke-width:1.0pt;marker-start:none"
         transform="scale(0.8) translate(12.5,0)" />
    </marker>
    <inkscape:path-effect
       effect="spiro"
       id="path-effect3922"
       is_visible="true" />
    <inkscape:path-effect
       effect="spiro"
       id="path-effect3918"
       is_visible="true" />
    <inkscape:path-effect
       effect="spiro"
       id="path-effect3914"
       is_visible="true" />
    <inkscape:path-effect
       effect="spiro"
       id="path-effect3910"
       is_visible="true" />
  </defs>
  <sodipodi:namedview
     id="base"
     pagecolor="#ffffff"
     bordercolor="#666666"
     borderopacity="1.0"
     inkscape:pageopacity="0.0"
     inkscape:pageshadow="2"
     inkscape:zoom="2.8"
     inkscape:cx="86.136912"
     inkscape:cy="159.44834"
     inkscape:document-units="px"
     inkscape:current-layer="layer1"
     showgrid="false"
     width="128px"
     showguides="true"
     inkscape:guide-bbox="true"
     inkscape:window-width="1280"
     inkscape:window-height="800"
     inkscape:window-x="0"
     inkscape:window-y="0"
     inkscape:window-maximized="0" />
  <metadata
     id="metadata7">
    <rdf:RDF>
      <cc:Work
         rdf:about="">
        <dc:format>image/svg+xml</dc:format>
        <dc:type
           rdf:resource="http://purl.org/dc/dcmitype/StillImage" />
      </cc:Work>
    </rdf:RDF>
  </metadata>
  <g
     inkscape:label="Layer 1"
     inkscape:groupmode="layer"
     id="layer1"
     transform="translate(0,-796.3622)">
    <rect
       style="fill:#ffffff;fill-opacity:1;stroke:#000000;stroke-width:5;stroke-miterlimit:4;stroke-opacity:1;stroke-dasharray:none"
       id="rect2985"
       width="47"
       height="47"
       x="56"
       y="855.36218"
       inkscape:tile-cx="49.5"
       inkscape:tile-cy="61.499983"
       inkscape:tile-w="47"
       inkscape:tile-h="47"
       inkscape:tile-x0="26"
       inkscape:tile-y0="37.999983" />
    <rect
       inkscape:tile-y0="37.999983"
       inkscape:tile-x0="26"
       y="855.36218"
       x="56"
       height="47"
       width="47"
       id="use3077"
       style="fill:none;fill-opacity:1;stroke:#000000;stroke-width:5;stroke-miterlimit:4;stroke-opacity:1;stroke-dasharray:none" />
    <rect
       inkscape:tile-y0="37.999983"
       inkscape:tile-x0="26"
       y="902.36218"
       x="56"
       height="47"
       width="47"
       id="use3079"
       style="fill:none;fill-opacity:1;stroke:#000000;stroke-width:5;stroke-miterlimit:4;stroke-opacity:1;stroke-dasharray:none" />
    <rect
       inkscape:tile-y0="37.999983"
       inkscape:tile-x0="26"
       y="902.36218"
       x="103"
       height="47"
       width="47"
       id="use3085"
       style="fill:none;fill-opacity:1;stroke:#000000;stroke-width:5;stroke-miterlimit:4;stroke-opacity:1;stroke-dasharray:none" />
    <rect
       inkscape:tile-y0="37.999983"
       inkscape:tile-x0="26"
       y="949.36218"
       x="150"
       height="47"
       width="47"
       id="use3093"
       style="fill:none;fill-opacity:1;stroke:#000000;stroke-width:5;stroke-miterlimit:4;stroke-opacity:1;stroke-dasharray:none" />
    <path
       style="fill:none;fill-opacity:1;stroke:#000000;stroke-width:5;stroke-miterlimit:4;stroke-opacity:1;stroke-dasharray:none"
       d="M 197 90.249983 L 197 105.99998 L 150 105.99998 L 150 95.999986 "
       id="use3089"
       transform="translate(0,796.3622)" />
    <path
       style="fill:none;fill-opacity:1;stroke:#000000;stroke-width:5;stroke-miterlimit:4;stroke-opacity:1;stroke-dasharray:none"
       d="M 150 95.999986 L 150 58.999983 L 150 58.999983 L 197 58.999983 L 197 90.249983 "
       id="path4745"
       transform="translate(0,796.3622)" />
    <rect
       inkscape:tile-y0="37.999983"
       inkscape:tile-x0="26"
       y="949.36218"
       x="56"
       height="47"
       width="47"
       id="use3081"
       style="fill:#000000;fill-opacity:1;stroke:#000000;stroke-width:5;stroke-miterlimit:4;stroke-opacity:1;stroke-dasharray:none" />
    <rect
       inkscape:tile-y0="37.999983"
       inkscape:tile-x0="26"
       y="949.36218"
       x="103"
       height="47"
       width="47"
       id="use3087"
       style="fill:#000000;fill-opacity:1;stroke:#000000;stroke-width:5;stroke-miterlimit:4;stroke-opacity:1;stroke-dasharray:none" />
    <path
       style="font-size:medium;font-style:normal;font-variant:normal;font-weight:normal;font-stretch:normal;text-indent:0;text-align:start;text-decoration:none;line-height:normal;letter-spacing:normal;word-spacing:normal;text-transform:none;direction:ltr;block-progression:tb;writing-mode:lr-tb;text-anchor:start;baseline-shift:baseline;color:#000000;fill:#00a300;fill-opacity:1;stroke:none;stroke-width:30;marker:none;visibility:visible;display:inline;overflow:visible;enable-background:accumulate;font-family:Sans;-inkscape-font-specification:Sans"
       d="M 110.28125 68.59375 A 15.003792 15.003792 0 0 0 105.25 69.4375 C 84.691855 76.74474 68.958209 93.99254 63.53125 115.125 C 58.104293 136.25747 63.60034 158.91004 78.09375 175.21875 C 86.225761 184.3693 96.768225 191.09691 108.5 194.59375 C 120.23177 198.0906 132.71644 198.23633 144.53125 195.03125 C 156.34605 191.82618 167.08124 185.38376 175.4375 176.4375 C 183.79375 167.49125 189.48217 156.38068 191.875 144.375 L 192.03125 143.65625 L 192.09375 142.96875 C 192.80879 135.99223 192.92582 128.98199 192.4375 122 L 162.46875 124.1875 C 162.80729 129.18239 162.74892 134.18769 162.28125 139.15625 C 160.91669 145.35238 157.82256 151.341 153.5 155.96875 C 149.0234 160.76143 143.01694 164.37672 136.6875 166.09375 C 130.35807 167.81077 123.34743 167.71708 117.0625 165.84375 C 110.77758 163.97043 104.85648 160.21463 100.5 155.3125 C 92.972208 146.84185 89.775017 133.53859 92.59375 122.5625 C 95.412481 111.58642 104.60347 101.51409 115.28125 97.71875 A 15.003792 15.003792 0 0 0 110.28125 68.59375 z "
       transform="translate(0,796.3622)"
       id="path3085" />
    <rect
       inkscape:tile-y0="37.999983"
       inkscape:tile-x0="26"
       y="855.36218"
       x="103"
       height="47"
       width="47"
       id="use3083"
       style="fill:#000000;fill-opacity:1;stroke:#000000;stroke-width:5;stroke-miterlimit:4;stroke-opacity:1;stroke-dasharray:none" />
    <path
       inkscape:connector-curvature="0"
       id="path3935"
       d="m 119.71875,816.75 c -3.34725,0.0105 -6.67989,1.18127 -9.29829,3.26649 -2.6184,2.08523 -4.50541,5.07126 -5.26487,8.33123 -0.75947,3.25997 -0.38642,6.77252 1.04083,9.80024 1.42726,3.02773 3.89936,5.5508 6.89733,7.03954 21.72283,11.28039 38.8984,32.09146 45.84375,55.5625 1.90219,6.42826 3.08265,13.09279 3.53702,19.80403 l 29.95589,-2.19044 c -0.61774,-8.83615 -2.19325,-17.60292 -4.71166,-26.11359 -9.34224,-31.57106 -31.59299,-58.51419 -60.8125,-73.6875 -2.19503,-1.18967 -4.69082,-1.81904 -7.1875,-1.8125 z"
       style="font-size:medium;font-style:normal;font-variant:normal;font-weight:normal;font-stretch:normal;text-indent:0;text-align:start;text-decoration:none;line-height:normal;letter-spacing:normal;word-spacing:normal;text-transform:none;direction:ltr;block-progression:tb;writing-mode:lr-tb;text-anchor:start;baseline-shift:baseline;color:#000000;fill:#ff0000;fill-opacity:1;stroke:none;stroke-width:30;marker:none;visibility:visible;display:inline;overflow:visible;enable-background:accumulate;font-family:Sans;-inkscape-font-specification:Sans"
       sodipodi:nodetypes="cssscsccscc" />
    <rect
       inkscape:tile-y0="37.999983"
       inkscape:tile-x0="26"
       y="902.36218"
       x="150"
       height="47"
       width="47"
       id="use3091"
       style="fill:#000000;fill-opacity:1;stroke:#000000;stroke-width:5;stroke-miterlimit:4;stroke-opacity:1;stroke-dasharray:none" />
  </g>
</svg>
