<?xml version="1.0" encoding="UTF-8" standalone="no"?>
<!-- Created with Inkscape (http://www.inkscape.org/) -->

<svg
   xmlns:osb="http://www.openswatchbook.org/uri/2009/osb"
   xmlns:dc="http://purl.org/dc/elements/1.1/"
   xmlns:cc="http://creativecommons.org/ns#"
   xmlns:rdf="http://www.w3.org/1999/02/22-rdf-syntax-ns#"
   xmlns:svg="http://www.w3.org/2000/svg"
   xmlns="http://www.w3.org/2000/svg"
   xmlns:xlink="http://www.w3.org/1999/xlink"
   xmlns:sodipodi="http://sodipodi.sourceforge.net/DTD/sodipodi-0.dtd"
   xmlns:inkscape="http://www.inkscape.org/namespaces/inkscape"
   width="175"
   height="175"
   id="svg2"
   version="1.1"
   inkscape:version="0.48.1 r9760"
   sodipodi:docname="logo.svg"
   inkscape:export-filename="/home/timo/worsch/zasim/docs/logo.png"
   inkscape:export-xdpi="61.523438"
   inkscape:export-ydpi="61.523438">
  <defs
     id="defs4">
    <inkscape:path-effect
       effect="spiro"
       id="path-effect3101"
       is_visible="true" />
    <inkscape:path-effect
       effect="spiro"
       id="path-effect6369"
       is_visible="true" />
    <linearGradient
       id="linearGradient5514"
       osb:paint="gradient">
      <stop
         id="stop5530"
         offset="0"
         style="stop-color:#00b313;stop-opacity:1;" />
      <stop
         id="stop5528"
         offset="1"
         style="stop-color:#7cff13;stop-opacity:1;" />
    </linearGradient>
    <inkscape:path-effect
       effect="spiro"
       id="path-effect5238"
       is_visible="true" />
    <inkscape:path-effect
       effect="spiro"
       id="path-effect5234"
       is_visible="true" />
    <inkscape:path-effect
       effect="spiro"
       id="path-effect5218"
       is_visible="true" />
    <inkscape:path-effect
       effect="spiro"
       id="path-effect4367"
       is_visible="true" />
    <inkscape:path-effect
       effect="spiro"
       id="path-effect4351"
       is_visible="true" />
    <inkscape:path-effect
       effect="spiro"
       id="path-effect4347"
       is_visible="true" />
    <inkscape:path-effect
       effect="spiro"
       id="path-effect4333"
       is_visible="true" />
    <inkscape:path-effect
       effect="spiro"
       id="path-effect4317"
       is_visible="true" />
    <inkscape:path-effect
       effect="spiro"
       id="path-effect4313"
       is_visible="true" />
    <inkscape:path-effect
       effect="spiro"
       id="path-effect4764"
       is_visible="true" />
    <inkscape:path-effect
       effect="spiro"
       id="path-effect4749"
       is_visible="true" />
    <inkscape:path-effect
       effect="spiro"
       id="path-effect4742"
       is_visible="true" />
    <marker
       inkscape:stockid="Arrow1Lstart"
       orient="auto"
       refY="0"
       refX="0"
       id="Arrow1Lstart"
       style="overflow:visible">
      <path
         id="path4112"
         d="M 0,0 5,-5 -12.5,0 5,5 0,0 z"
         style="fill-rule:evenodd;stroke:#000000;stroke-width:1pt;marker-start:none"
         transform="matrix(0.8,0,0,0.8,10,0)"
         inkscape:connector-curvature="0" />
    </marker>
    <inkscape:path-effect
       effect="spiro"
       id="path-effect3922"
       is_visible="true" />
    <inkscape:path-effect
       effect="spiro"
       id="path-effect3918"
       is_visible="true" />
    <inkscape:path-effect
       effect="spiro"
       id="path-effect3914"
       is_visible="true" />
    <inkscape:path-effect
       effect="spiro"
       id="path-effect3910"
       is_visible="true" />
    <clipPath
       clipPathUnits="userSpaceOnUse"
       id="clipPath4007">
      <path
         style="font-size:medium;font-style:normal;font-variant:normal;font-weight:normal;font-stretch:normal;text-indent:0;text-align:start;text-decoration:none;line-height:normal;letter-spacing:normal;word-spacing:normal;text-transform:none;direction:ltr;block-progression:tb;writing-mode:lr-tb;text-anchor:start;baseline-shift:baseline;color:#000000;fill:#008000;fill-opacity:1;stroke:none;stroke-width:30;marker:none;visibility:visible;display:inline;overflow:visible;enable-background:accumulate;font-family:Sans;-inkscape-font-specification:Sans"
         d="m 92.5625,809.7372 c -0.416895,0.003 -0.833475,0.0144 -1.25,0.0312 -2.320949,0.54446 -4.680874,1.94198 -5.53125,4.28125 -1.046963,2.79821 -0.407475,5.98313 1,8.53125 1.966651,3.35142 4.525372,6.29494 6.875,9.375 1.7002,2.18454 3.233992,4.51868 4.40625,7.03125 2.18988,4.35559 4.21154,8.7924 6.84375,12.90625 1.22393,1.79078 2.49903,3.57821 4.125,5.03125 1.2532,1.31724 2.644,2.5539 4.3125,3.3125 2.7825,1.55703 5.96503,2.45141 9.15625,2.53125 3.17159,0.29164 6.36629,-0.15344 9.53125,0.21875 2.66619,0.44031 4.81979,2.28721 6.59375,4.21875 3.13743,3.44328 5.88021,7.25814 8.375,11.1875 2.46182,3.90726 4.69598,7.94498 6.59375,12.15625 3.36567,7.55065 5.68852,15.50943 8.1875,23.375 1.00337,7.15534 1.17513,14.42104 0.5,21.59375 -1.36456,6.19613 -4.45869,12.18475 -8.78125,16.8125 -4.4766,4.79268 -10.48306,8.40797 -16.8125,10.125 -6.32943,1.71702 -13.34007,1.62333 -19.625,-0.25 -6.28492,-1.87332 -12.20602,-5.62912 -16.5625,-10.53125 -7.527792,-8.47065 -10.724983,-21.77391 -7.90625,-32.75 2.818731,-10.97608 12.00972,-21.04841 22.6875,-24.84375 A 15.003792,15.003792 0 1 0 105.25,865.7997 c -20.558145,7.30724 -36.291791,24.55504 -41.71875,45.6875 -5.426957,21.13247 0.06909,43.78504 14.5625,60.09375 8.132011,9.15055 18.674475,15.87816 30.40625,19.375 11.73177,3.49685 24.21644,3.64258 36.03125,0.4375 11.8148,-3.20507 22.54999,-9.64749 30.90625,-18.59375 8.35625,-8.94625 14.04467,-20.05682 16.4375,-32.0625 l 0.15625,-0.71875 0.0625,-0.6875 c 1.61983,-15.80451 0.13301,-31.85944 -4.375,-47.09375 -6.00274,-20.28559 -17.35175,-38.64904 -32.4375,-53.21875 -0.67572,-0.90737 -1.31715,-1.82453 -1.96875,-2.75 -0.73653,-1.00121 -1.32942,-2.08871 -1.6875,-3.28125 -0.96862,-2.90743 -1.32192,-5.9915 -2.15625,-8.9375 -0.77876,-2.96895 -1.9166,-6.01304 -4.3125,-8.0625 -2.84495,-2.53201 -6.67165,-3.78145 -10.4375,-3.9375 -6.089,-0.52004 -12.22093,-0.0466 -18.3125,-0.53125 -7.54644,-0.45022 -15.03186,-1.52541 -22.59375,-1.75 -0.416464,-0.0233 -0.833105,-0.0342 -1.25,-0.0312 z"
         id="path4009"
         inkscape:connector-curvature="0" />
    </clipPath>
    <filter
       id="filter5220"
       inkscape:label="Ripple"
       inkscape:menu="Distort"
       inkscape:menu-tooltip="Horizontal rippling of edges"
       color-interpolation-filters="sRGB">
      <feTurbulence
         id="feTurbulence5222"
         numOctaves="1"
         baseFrequency="0.002 0.107" />
      <feColorMatrix
         id="feColorMatrix5224"
         values="2 0 0 0 0 0 0 0 0 0 0 0 0 0 0 0 0 0 0.5 0.5"
         result="result91" />
      <feDisplacementMap
         id="feDisplacementMap5226"
         in2="result91"
         yChannelSelector="A"
         xChannelSelector="R"
         scale="14.3"
         in="SourceGraphic" />
    </filter>
    <clipPath
       clipPathUnits="userSpaceOnUse"
       id="clipPath5481">
      <use
         x="0"
         y="0"
         xlink:href="#path4365"
         id="use5483"
         width="1"
         height="1" />
    </clipPath>
    <clipPath
       clipPathUnits="userSpaceOnUse"
       id="clipPath5485">
      <use
         x="0"
         y="0"
         xlink:href="#path4365"
         id="use5487"
         width="1"
         height="1" />
    </clipPath>
    <clipPath
       clipPathUnits="userSpaceOnUse"
       id="clipPath5489">
      <use
         x="0"
         y="0"
         xlink:href="#path4365"
         id="use5491"
         width="1"
         height="1" />
    </clipPath>
    <clipPath
       clipPathUnits="userSpaceOnUse"
       id="clipPath5493">
      <use
         x="0"
         y="0"
         xlink:href="#path4365"
         id="use5495"
         width="1"
         height="1" />
    </clipPath>
    <clipPath
       clipPathUnits="userSpaceOnUse"
       id="clipPath5497">
      <use
         x="0"
         y="0"
         xlink:href="#path4365"
         id="use5499"
         width="1"
         height="1" />
    </clipPath>
  </defs>
  <sodipodi:namedview
     id="base"
     pagecolor="#ffffff"
     bordercolor="#666666"
     borderopacity="1.0"
     inkscape:pageopacity="0"
     inkscape:pageshadow="2"
     inkscape:zoom="5"
     inkscape:cx="129.12669"
     inkscape:cy="96.809291"
     inkscape:document-units="px"
     inkscape:current-layer="layer1"
     showgrid="false"
     width="128px"
     showguides="true"
     inkscape:guide-bbox="true"
     inkscape:window-width="1280"
     inkscape:window-height="785"
     inkscape:window-x="0"
     inkscape:window-y="15"
     inkscape:window-maximized="0"
     inkscape:snap-object-midpoints="false" />
  <metadata
     id="metadata7">
    <rdf:RDF>
      <cc:Work
         rdf:about="">
        <dc:format>image/svg+xml</dc:format>
        <dc:type
           rdf:resource="http://purl.org/dc/dcmitype/StillImage" />
        <dc:title />
      </cc:Work>
    </rdf:RDF>
  </metadata>
  <g
     inkscape:label="Layer 1"
     inkscape:groupmode="layer"
     id="layer1"
     transform="translate(0,-877.3622)">
    <g
       id="g5718"
       transform="matrix(0.61684398,0.61684398,-0.61684398,0.61684398,624.78833,271.94258)">
      <path
         style="fill:#ffffff;fill-opacity:1;stroke:#000000;stroke-width:5.59701204;stroke-linejoin:round;stroke-miterlimit:4;stroke-opacity:1"
         d="m 81.044249,928.9621 -0.424038,0.81274 -3.0036,5.68918 -14.43495,27.3681 33.905348,17.86258 7.137961,-13.53387 2.26153,-4.31105 8.44542,-16.04276 -33.887671,-17.84492 z"
         id="path6392"
         inkscape:connector-curvature="0" />
      <rect
         style="fill:#ffffff;fill-opacity:1;stroke:#000000;stroke-width:5.59701204;stroke-linejoin:round;stroke-miterlimit:4;stroke-opacity:1;stroke-dasharray:none"
         id="center"
         width="38.30373"
         height="38.30373"
         x="102.82809"
         y="973.85602"
         inkscape:tile-x0="-62.196087"
         inkscape:tile-y0="46.312849" />
      <path
         style="fill:#000000;stroke:#000000;stroke-width:4.88254832999999966;stroke-linejoin:round;stroke-miterlimit:4;stroke-opacity:1"
         d="M 122.78098,32.558618 141.85759,51.635222 125.0062,68.486609"
         id="12oclock_right"
         transform="matrix(0.81057774,-0.81057774,0.81057774,0.81057774,-15.699845,997.17918)"
         inkscape:connector-curvature="0"
         sodipodi:nodetypes="ccc" />
      <rect
         inkscape:tile-y0="46.312849"
         inkscape:tile-x0="-62.196087"
         y="924.06122"
         x="152.62294"
         height="38.30373"
         width="38.30373"
         id="upright"
         style="fill:#ffffff;fill-opacity:1;stroke:#000000;stroke-width:5.59701204;stroke-linejoin:round;stroke-miterlimit:4;stroke-opacity:1;stroke-dasharray:none" />
      <rect
         inkscape:tile-y0="46.312849"
         inkscape:tile-x0="-62.196087"
         y="973.85608"
         x="53.033241"
         height="38.30373"
         width="38.30373"
         id="9oclock_white"
         style="fill:#ffffff;fill-opacity:1;stroke:#000000;stroke-width:5.59701204;stroke-linejoin:round;stroke-miterlimit:4;stroke-opacity:1;stroke-dasharray:none" />
      <rect
         inkscape:tile-y0="46.312849"
         inkscape:tile-x0="-62.196087"
         y="1023.6509"
         x="152.62294"
         height="38.30373"
         width="38.30373"
         id="downright"
         style="fill:#000000;fill-opacity:1;stroke:#000000;stroke-width:5.59701204;stroke-linejoin:round;stroke-miterlimit:4;stroke-opacity:1;stroke-dasharray:none" />
      <g
         id="snake"
         inkscape:label="#snake"
         sodipodi:insensitive="true">
        <path
           sodipodi:nodetypes="ccccccccccccccc"
           inkscape:connector-curvature="0"
           id="path5228"
           d="m 122.40534,907.33533 c -2.64273,0.0611 -5.47114,1.18089 -7.98498,-0.10345 -1.94181,-1.08143 -2.42153,-3.48997 -4.00913,-4.90584 -4.46952,-2.27381 -9.56559,4.82163 -12.902706,5.1699 -2.442099,0.69144 -5.283078,1.60631 -7.610738,0.10585 -0.268228,-0.59286 1.524272,-1.15976 2.135529,-1.66866 0.864729,-0.61608 2.580455,-1.08316 3.061943,-1.48881 -2.014149,-1.12512 -4.008209,-2.82291 -4.557061,-5.16058 1.183965,0.42173 4.157728,2.43851 6.800396,2.05479 1.597745,0.25135 3.314157,-0.0239 4.519337,-1.51651 1.57746,-2.24617 4.29895,-4.22616 7.2699,-4.65475 2.40553,-0.29091 4.23635,1.81872 5.17369,3.79249 0.6984,2.01177 3.08288,2.61557 4.99186,2.35895 3.1902,0.10276 4.19367,-1.77865 3.78896,1.91538 -0.22567,1.36708 -0.45134,2.73415 -0.677,4.10124 z"
           style="fill:#000000;fill-opacity:1;stroke:none" />
        <a
           id="a4369"
           transform="matrix(0.70578732,-0.4074865,0.4074865,0.70578732,-334.29086,387.26018)">
          <path
             style="font-size:medium;font-style:normal;font-variant:normal;font-weight:normal;font-stretch:normal;text-indent:0;text-align:start;text-decoration:none;line-height:normal;letter-spacing:normal;word-spacing:normal;text-transform:none;direction:ltr;block-progression:tb;writing-mode:lr-tb;text-anchor:start;baseline-shift:baseline;color:#000000;fill:#5dc200;fill-opacity:1;stroke:none;stroke-width:29.99978256;marker:none;visibility:visible;display:inline;overflow:visible;enable-background:accumulate;font-family:Sans;-inkscape-font-specification:Sans"
             d="m 169.5,823.34375 a 15.0015,15.0015 0 0 0 -11.0625,24.125 c 15.89774,21.3121 14.01759,47.50784 4.0625,71.03125 -4.97755,11.7617 -11.99737,22.41278 -19.03125,30.0625 -7.03388,7.64972 -14.46797,11.85815 -16.96875,12.4375 -22.47106,5.2058 -44.228383,-6.5475 -47.5625,-31.09375 -1.327564,-9.77373 5.490422,-29.77773 15.40625,-40.28125 4.957914,-5.25176 10.07062,-7.95893 13.71875,-8.46875 3.64813,-0.50982 6.79315,-0.17021 12.5625,5.46875 a 15.0015,15.0015 0 1 0 20.96875,-21.4375 c -10.87272,-10.62699 -24.94456,-15.53079 -37.6875,-13.75 -12.742939,1.78079 -23.173085,8.90572 -31.375,17.59375 -16.403831,17.37605 -26.471666,41.648 -23.3125,64.90625 5.639351,41.51771 46.311595,65.05814 84.0625,56.3125 12.55471,-2.90851 22.66555,-10.95141 32.25,-21.375 9.58445,-10.42359 18.23981,-23.67344 24.59375,-38.6875 12.70788,-30.02811 16.05982,-68.90498 -7.625,-100.65625 a 15.0015,15.0015 0 0 0 -13,-6.1875 z"
             id="path4365"
             inkscape:connector-curvature="0" />
          <g
             id="g5532"
             style="fill:#009300;fill-opacity:1">
            <path
               clip-path="url(#clipPath5497)"
               inkscape:connector-curvature="0"
               id="path5298"
               d="m 140.97722,847.42571 c -1.68271,6.08587 -4.20826,11.91881 -7.26945,17.43387 -3.50787,2.70141 -6.75875,6.34899 -11.34928,7.05484 -3.95126,-1.9187 -8.90048,-3.69815 -13.02721,-1.24166 -4.61003,2.00874 -8.55625,5.35831 -13.360801,6.95294 -4.167148,0.35463 -7.072746,-3.3903 -8.772868,-6.71373 -1.771931,-2.80666 -1.192056,-6.29102 -1.118399,-9.43897 0.421133,-2.98477 -0.04855,-6.04188 0.370309,-8.98779 1.138726,-2.99448 4.834834,-3.17124 7.535216,-3.60702 3.603832,-0.47955 6.982333,-1.9422 10.564103,-2.56837 7.82097,-1.65158 15.84096,-2.59644 23.83848,-2.37464 3.6165,0.3607 7.15984,1.29771 10.69443,2.06079 0.70674,0.30702 1.72516,0.54362 1.89547,1.42974 z"
               style="color:#000000;fill:#009300;fill-opacity:1;stroke:none;stroke-width:1;marker:none;visibility:visible;display:inline;overflow:visible;enable-background:accumulate" />
            <path
               clip-path="url(#clipPath5493)"
               inkscape:connector-curvature="0"
               id="path5302"
               d="m 101.91357,894.54518 c -6.704552,6.08111 -15.619344,-1.91841 -21.624393,-5.29232 -2.218896,-7.35266 -3.47896,-18.29983 -14.258875,-16.34411 -10.748956,-0.38535 -12.22288,11.92026 -19.148676,17.35608 -6.282946,6.21706 -13.928019,14.11355 -10.71869,23.80644 0.789246,10.29134 12.966318,11.13898 19.17838,5.04473 6.121732,-4.33343 12.739114,-11.78433 20.828617,-10.19196 4.068488,5.45745 9.868699,13.24856 16.619262,5.42029 5.061496,-5.50446 4.863459,-13.76533 9.124375,-19.79915 z"
               style="color:#000000;fill:#009300;fill-opacity:1;fill-rule:nonzero;stroke:none;stroke-width:1;marker:none;visibility:visible;display:inline;overflow:visible;enable-background:accumulate" />
            <path
               clip-path="url(#clipPath5489)"
               inkscape:connector-curvature="0"
               id="path5304"
               d="m 84.922172,931.67792 c -5.927946,4.19718 -10.943053,11.56012 -9.046387,19.10352 0.385404,8.49806 7.186711,16.43794 15.697141,17.55381 4.84789,1.44156 5.958586,7.10647 6.406642,11.47679 0.271212,4.20369 1.544636,8.24774 2.432782,12.35422 0.69991,3.82225 3.98129,7.35717 8.15266,6.46319 13.99701,0.17666 26.96822,-6.06524 40.70111,-7.74079 2.1142,-0.0988 7.33952,-3.28585 2.666,-3.7546 -4.35334,0.14447 -8.78208,0.34123 -13.07347,-0.69069 -3.4899,-0.59109 -7.58538,-1.61603 -8.74689,-5.47131 -1.78894,-5.11774 0.63555,-10.69587 4.20797,-14.41762 3.12552,-4.41495 3.02251,-10.11786 2.63082,-15.27793 -4.43299,-4.45255 -11.18138,-1.80577 -16.58709,-3.49799 -2.71359,-1.26279 -5.52289,-2.39319 -8.05294,-4.04599 -5.92842,-3.9439 -10.96818,-10.02262 -18.418299,-10.99694 -2.924382,-0.57943 -5.973324,-2.03247 -8.970049,-1.05767 z"
               style="color:#000000;fill:#009300;fill-opacity:1;fill-rule:nonzero;stroke:none;stroke-width:1;marker:none;visibility:visible;display:inline;overflow:visible;enable-background:accumulate" />
            <path
               clip-path="url(#clipPath5485)"
               inkscape:connector-curvature="0"
               id="path5306"
               d="m 156.9375,888.84375 c -2.22834,0.85468 -4.36367,1.98976 -6.21875,3.5 -1.54794,1.28737 -2.84094,2.85307 -4.02045,4.477 -1.26795,1.80711 -2.20915,3.82346 -2.9483,5.898 -0.64151,2.11008 -1.08567,4.31616 -0.93761,6.53011 0.0883,1.44861 0.42383,2.86859 0.95571,4.21724 0.74372,2.18514 2.17998,4.07356 3.83541,5.65392 2.74501,2.60416 5.77026,4.88718 8.73987,7.22457 3.43243,2.58957 6.81994,5.23934 10.32367,7.73292 5.12885,3.70773 10.21881,7.47125 15.41827,11.07977 1.82487,1.2019 3.57832,2.54618 5.60218,3.40522 2.34089,1.07794 4.85527,1.85312 7.43769,2.01203 1.45157,0.0755 2.89934,-0.14657 4.29586,-0.53308 2.25735,-0.56613 4.40511,-1.54654 6.32895,-2.85395 1.22964,-0.77207 2.35779,-1.69676 3.32346,-2.78265 1.22374,-1.32856 2.55175,-2.5976 3.42628,-4.19854 1.17171,-1.92188 1.85718,-4.08369 2.40714,-6.25231 0.83019,-3.02104 1.38183,-6.10773 2.06092,-9.16411 0.99049,-4.85167 1.94137,-9.71173 2.9139,-14.56668 0.89895,-3.61998 1.81405,-7.23588 2.7433,-10.84821 0.17021,-0.81944 -0.32851,-1.70023 -1.15625,-1.90625 -1.20765,-0.0569 -2.41599,0.0498 -3.62518,0.0434 -3.17672,0.10425 -6.35319,0.291 -9.53083,0.31988 -4.00393,-0.2657 -7.99567,-0.69781 -12.00053,-0.94343 -1.19663,-0.0477 -2.42006,-0.14185 -3.58132,0.22017 -1.56461,0.40603 -3.01161,1.15517 -4.52753,1.70438 -1.21362,0.49195 -2.44109,0.96086 -3.56269,1.64582 -1.81838,1.00103 -3.59006,2.10651 -5.20317,3.41608 -1.80504,1.46767 -3.23502,3.31524 -4.7783,5.03909 -0.89,0.95585 -1.78784,2.0287 -3.06545,2.46091 -1.40281,0.28236 -2.85117,0.23008 -4.24225,0.58828 -1.83854,0.34653 -3.68031,0.71624 -5.44525,1.34922 -0.91385,0.0474 -1.79705,0.35595 -2.71896,0.28125 -0.83732,0.18645 -1.50202,-0.42074 -1.93729,-1.0625 -0.66708,-1.07696 -0.55934,-2.42961 -0.16171,-3.58145 0.5697,-2.22145 1.60954,-4.27655 2.52792,-6.36534 0.87593,-2.19703 1.76493,-4.44476 1.89924,-6.83275 0.0901,-1.26804 -0.11408,-2.56528 -0.705,-3.69954 -0.61306,-1.20699 -1.27614,-2.50978 -2.4667,-3.23967 -0.46309,-0.25517 -0.93962,-0.14754 -1.40625,0.0312 z"
               style="color:#000000;fill:#009300;fill-opacity:1;fill-rule:nonzero;stroke:none;stroke-width:1;marker:none;visibility:visible;display:inline;overflow:visible;enable-background:accumulate" />
            <path
               clip-path="url(#clipPath5481)"
               sodipodi:nodetypes="ccccc"
               inkscape:connector-curvature="0"
               id="path5308"
               d="m 186.28125,851.09375 c -2.19485,1.02593 -4.20313,2.39229 -6.29334,3.60665 -0.7169,0.46093 -1.63391,0.73957 -2.09898,1.49746 -0.48072,0.73302 -0.38818,1.62978 -0.35768,2.45839 -0.0114,0.9086 -0.51284,1.71453 -1.08679,2.38018 -0.87105,1.16307 -1.09766,2.64577 -1.22571,4.05732 0.0447,1.47772 0.24744,2.94726 0.6775,4.364 0.39256,1.48346 0.82368,3.04728 1.88752,4.20102 0.92688,0.93605 2.21874,1.3631 3.42103,1.82496 1.66668,0.56586 3.35217,1.0852 4.98842,1.73479 0.81136,0.26271 1.48469,0.75957 2.10191,1.33547 0.76538,0.53925 1.18085,1.52375 2.11112,1.82101 0.81166,0.0966 1.68994,-0.12828 2.3365,-0.63428 1.2779,-1.08883 2.77253,-1.88728 4.27914,-2.60708 1.24024,-0.43061 2.40896,-1.05381 3.69015,-1.36715 1.72767,-0.53976 3.46632,-1.05595 5.16126,-1.69081 1.37617,-0.62595 2.68473,-1.42476 3.87138,-2.36396 0.76635,-0.47826 1.01021,-1.39161 1.22407,-2.21172 0.20724,-1.64755 0.27466,-3.30939 0.44963,-4.96112 0.19387,-2.19005 0.38775,-4.38009 0.58162,-6.57013 -0.13192,-0.84408 -1.20303,-1.25366 -1.9375,-0.90625 -3.35561,1.3318 -6.88213,2.15294 -10.39723,2.9384 -1.36858,0.29096 -2.83057,0.49901 -4.19652,0.0928 -1.10068,-0.54863 -1.87042,-1.56155 -2.62376,-2.50145 -1.11373,-1.44683 -2.03059,-3.02845 -3.03002,-4.5536 -0.56015,-0.89591 -1.12168,-1.93422 -2.18997,-2.2887 -0.50696,-0.22792 -0.90244,0.15699 -1.34375,0.34375 z"
               style="color:#000000;fill:#009300;fill-opacity:1;fill-rule:nonzero;stroke:none;stroke-width:1;marker:none;visibility:visible;display:inline;overflow:visible;enable-background:accumulate" />
          </g>
        </a>
        <g
           transform="matrix(0.69750694,0,0,0.69750694,33.988574,343.26454)"
           id="g5714"
           style="fill:#ffffff;fill-opacity:1;stroke:#009300;stroke-width:2.29266;stroke-miterlimit:4;stroke-opacity:1;stroke-dasharray:none">
          <path
             transform="matrix(1.0118714,-0.58420423,0.58420423,1.0118714,-10.75565,870.0615)"
             d="m 131.87542,32.200703 a 6.0104074,6.0104074 0 1 1 -12.02081,0 6.0104074,6.0104074 0 1 1 12.02081,0 z"
             sodipodi:ry="6.0104074"
             sodipodi:rx="6.0104074"
             sodipodi:cy="32.200703"
             sodipodi:cx="125.86501"
             id="path5212"
             style="fill:#ffffff;fill-opacity:1;stroke:#009300;stroke-width:1.96220767;stroke-miterlimit:4;stroke-opacity:1;stroke-dasharray:none"
             sodipodi:type="arc" />
          <path
             sodipodi:type="arc"
             style="fill:#ffffff;fill-opacity:1;stroke:#009300;stroke-width:1.96220767;stroke-miterlimit:4;stroke-opacity:1;stroke-dasharray:none"
             id="path5214"
             sodipodi:cx="125.86501"
             sodipodi:cy="32.200703"
             sodipodi:rx="6.0104074"
             sodipodi:ry="6.0104074"
             d="m 131.87542,32.200703 a 6.0104074,6.0104074 0 1 1 -12.02081,0 6.0104074,6.0104074 0 1 1 12.02081,0 z"
             transform="matrix(1.0118714,-0.58420423,0.58420423,1.0118714,5.6487497,846.09336)" />
        </g>
        <path
           transform="matrix(0.35289366,-0.20374325,0.20374325,0.35289366,75.43763,934.84453)"
           d="m 131.87542,32.200703 a 6.0104074,6.0104074 0 1 1 -12.02081,0 6.0104074,6.0104074 0 1 1 12.02081,0 z"
           sodipodi:ry="6.0104074"
           sodipodi:rx="6.0104074"
           sodipodi:cy="32.200703"
           sodipodi:cx="125.86501"
           id="path6413"
           style="fill:#000000;fill-opacity:1;stroke:none"
           sodipodi:type="arc" />
        <path
           sodipodi:type="arc"
           style="fill:#000000;fill-opacity:1;stroke:none"
           id="path6415"
           sodipodi:cx="125.86501"
           sodipodi:cy="32.200703"
           sodipodi:rx="6.0104074"
           sodipodi:ry="6.0104074"
           d="m 131.87542,32.200703 a 6.0104074,6.0104074 0 1 1 -12.02081,0 6.0104074,6.0104074 0 1 1 12.02081,0 z"
           transform="matrix(0.35289366,-0.20374325,0.20374325,0.35289366,86.879813,918.12659)" />
      </g>
      <rect
         inkscape:tile-y0="46.312849"
         inkscape:tile-x0="-62.196087"
         y="1023.6509"
         x="53.033241"
         height="38.30373"
         width="38.30373"
         id="downleft"
         style="fill:#000000;fill-opacity:1;stroke:#000000;stroke-width:5.59701204;stroke-linejoin:round;stroke-miterlimit:4;stroke-opacity:1;stroke-dasharray:none" />
      <path
         style="fill:none;stroke:#000000;stroke-width:5.59701204;stroke-linejoin:round;stroke-miterlimit:4;stroke-opacity:1"
         d="m 77.624635,935.45493 3.426908,-6.50157 0,0 33.884847,17.86035 -10.72495,20.3475"
         id="upleft_right"
         inkscape:connector-curvature="0"
         sodipodi:nodetypes="ccccc" />
      <rect
         inkscape:tile-y0="46.312849"
         inkscape:tile-x0="-62.196087"
         y="1023.6509"
         x="102.82809"
         height="38.30373"
         width="38.30373"
         id="down"
         style="fill:#000000;fill-opacity:1;stroke:#000000;stroke-width:5.59701204;stroke-linejoin:round;stroke-miterlimit:4;stroke-opacity:1;stroke-dasharray:none" />
      <path
         style="fill:none;stroke:#000000;stroke-width:5.59701204;stroke-linejoin:round;stroke-miterlimit:4;stroke-opacity:1"
         d="M 106.48683,962.8443 97.076052,980.69857 63.191194,962.83822 80.623972,929.76455"
         id="upleft_left"
         inkscape:connector-curvature="0"
         sodipodi:nodetypes="cccc" />
      <path
         style="fill:#000000;fill-opacity:1;stroke:#000000;stroke-width:4.88254832999999966;stroke-linejoin:round;stroke-miterlimit:4;stroke-opacity:1"
         d="M 128.3562 65.136609 L 118.23016 75.262648 L 94.602738 51.635222 L 118.23016 28.007797 L 118.23016 28.007797 L 126.23098 36.008617 "
         id="12oclock_left"
         transform="matrix(0.81057774,-0.81057774,0.81057774,0.81057774,-15.699845,997.17918)" />
      <rect
         inkscape:tile-y0="46.312849"
         inkscape:tile-x0="-62.196087"
         y="973.85608"
         x="152.62294"
         height="38.30373"
         width="38.30373"
         id="right"
         style="fill:#000000;fill-opacity:1;stroke:#000000;stroke-width:5.59701204;stroke-linejoin:round;stroke-miterlimit:4;stroke-opacity:1;stroke-dasharray:none" />
    </g>
  </g>
</svg>
