<?xml version="1.0" encoding="UTF-8" standalone="no"?>
<!-- Created with Inkscape (http://www.inkscape.org/) -->

<svg
   xmlns:dc="http://purl.org/dc/elements/1.1/"
   xmlns:cc="http://creativecommons.org/ns#"
   xmlns:rdf="http://www.w3.org/1999/02/22-rdf-syntax-ns#"
   xmlns:svg="http://www.w3.org/2000/svg"
   xmlns="http://www.w3.org/2000/svg"
   xmlns:sodipodi="http://sodipodi.sourceforge.net/DTD/sodipodi-0.dtd"
   xmlns:inkscape="http://www.inkscape.org/namespaces/inkscape"
   width="256"
   height="256"
   id="svg2"
   version="1.1"
   inkscape:version="0.48.1 r9760"
   sodipodi:docname="New document 1.2011_08_23_01_14_12.0.svg">
  <defs
     id="defs4">
    <inkscape:path-effect
       effect="spiro"
       id="path-effect4764"
       is_visible="true" />
    <inkscape:path-effect
       effect="spiro"
       id="path-effect4749"
       is_visible="true" />
    <inkscape:path-effect
       effect="spiro"
       id="path-effect4742"
       is_visible="true" />
    <marker
       inkscape:stockid="Arrow1Lstart"
       orient="auto"
       refY="0.0"
       refX="0.0"
       id="Arrow1Lstart"
       style="overflow:visible">
      <path
         id="path4112"
         d="M 0.0,0.0 L 5.0,-5.0 L -12.5,0.0 L 5.0,5.0 L 0.0,0.0 z "
         style="fill-rule:evenodd;stroke:#000000;stroke-width:1.0pt;marker-start:none"
         transform="scale(0.8) translate(12.5,0)" />
    </marker>
    <inkscape:path-effect
       effect="spiro"
       id="path-effect3922"
       is_visible="true" />
    <inkscape:path-effect
       effect="spiro"
       id="path-effect3918"
       is_visible="true" />
    <inkscape:path-effect
       effect="spiro"
       id="path-effect3914"
       is_visible="true" />
    <inkscape:path-effect
       effect="spiro"
       id="path-effect3910"
       is_visible="true" />
  </defs>
  <sodipodi:namedview
     id="base"
     pagecolor="#ffffff"
     bordercolor="#666666"
     borderopacity="1.0"
     inkscape:pageopacity="0.0"
     inkscape:pageshadow="2"
     inkscape:zoom="2.8"
     inkscape:cx="86.136912"
     inkscape:cy="145.16262"
     inkscape:document-units="px"
     inkscape:current-layer="layer1"
     showgrid="false"
     width="128px"
     showguides="true"
     inkscape:guide-bbox="true"
     inkscape:window-width="1280"
     inkscape:window-height="800"
     inkscape:window-x="0"
     inkscape:window-y="0"
     inkscape:window-maximized="0" />
  <metadata
     id="metadata7">
    <rdf:RDF>
      <cc:Work
         rdf:about="">
        <dc:format>image/svg+xml</dc:format>
        <dc:type
           rdf:resource="http://purl.org/dc/dcmitype/StillImage" />
        <dc:title></dc:title>
      </cc:Work>
    </rdf:RDF>
  </metadata>
  <g
     inkscape:label="Layer 1"
     inkscape:groupmode="layer"
     id="layer1"
     transform="translate(0,-796.3622)">
    <rect
       style="fill:#ffffff;fill-opacity:1;stroke:#000000;stroke-width:5;stroke-miterlimit:4;stroke-opacity:1;stroke-dasharray:none"
       id="rect2985"
       width="47"
       height="47"
       x="56"
       y="855.36218"
       inkscape:tile-cx="49.5"
       inkscape:tile-cy="61.499983"
       inkscape:tile-w="47"
       inkscape:tile-h="47"
       inkscape:tile-x0="26"
       inkscape:tile-y0="37.999983" />
    <rect
       inkscape:tile-y0="37.999983"
       inkscape:tile-x0="26"
       y="855.36218"
       x="56"
       height="47"
       width="47"
       id="use3077"
       style="fill:none;fill-opacity:1;stroke:#000000;stroke-width:5;stroke-miterlimit:4;stroke-opacity:1;stroke-dasharray:none" />
    <rect
       inkscape:tile-y0="37.999983"
       inkscape:tile-x0="26"
       y="902.36218"
       x="56"
       height="47"
       width="47"
       id="use3079"
       style="fill:none;fill-opacity:1;stroke:#000000;stroke-width:5;stroke-miterlimit:4;stroke-opacity:1;stroke-dasharray:none" />
    <rect
       inkscape:tile-y0="37.999983"
       inkscape:tile-x0="26"
       y="902.36218"
       x="103"
       height="47"
       width="47"
       id="use3085"
       style="fill:none;fill-opacity:1;stroke:#000000;stroke-width:5;stroke-miterlimit:4;stroke-opacity:1;stroke-dasharray:none" />
    <rect
       inkscape:tile-y0="37.999983"
       inkscape:tile-x0="26"
       y="949.36218"
       x="150"
       height="47"
       width="47"
       id="use3093"
       style="fill:none;fill-opacity:1;stroke:#000000;stroke-width:5;stroke-miterlimit:4;stroke-opacity:1;stroke-dasharray:none" />
    <path
       style="fill:none;fill-opacity:1;stroke:#000000;stroke-width:5;stroke-miterlimit:4;stroke-opacity:1;stroke-dasharray:none"
       d="M 197 90.249983 L 197 105.99998 L 150 105.99998 L 150 95.999986 "
       id="use3089"
       transform="translate(0,796.3622)" />
    <path
       style="fill:none;fill-opacity:1;stroke:#000000;stroke-width:5;stroke-miterlimit:4;stroke-opacity:1;stroke-dasharray:none"
       d="M 150 95.999986 L 150 58.999983 L 150 58.999983 L 197 58.999983 L 197 90.249983 "
       id="path4745"
       transform="translate(0,796.3622)" />
    <rect
       inkscape:tile-y0="37.999983"
       inkscape:tile-x0="26"
       y="949.36218"
       x="56"
       height="47"
       width="47"
       id="use3081"
       style="fill:#000000;fill-opacity:1;stroke:#000000;stroke-width:5;stroke-miterlimit:4;stroke-opacity:1;stroke-dasharray:none" />
    <rect
       inkscape:tile-y0="37.999983"
       inkscape:tile-x0="26"
       y="949.36218"
       x="103"
       height="47"
       width="47"
       id="use3087"
       style="fill:#000000;fill-opacity:1;stroke:#000000;stroke-width:5;stroke-miterlimit:4;stroke-opacity:1;stroke-dasharray:none" />
    <path
       style="font-size:medium;font-style:normal;font-variant:normal;font-weight:normal;font-stretch:normal;text-indent:0;text-align:start;text-decoration:none;line-height:normal;letter-spacing:normal;word-spacing:normal;text-transform:none;direction:ltr;block-progression:tb;writing-mode:lr-tb;text-anchor:start;baseline-shift:baseline;color:#000000;fill:#008000;fill-opacity:1;stroke:none;stroke-width:30;marker:none;visibility:visible;display:inline;overflow:visible;enable-background:accumulate;font-family:Sans;-inkscape-font-specification:Sans"
       d="m 119.71875,816.75 a 15.0015,15.0015 0 0 0 -6.625,28.4375 c 21.72283,11.28039 38.89839,32.09146 45.84375,55.5625 3.31726,11.21032 4.43956,23.1392 3.34375,34.78125 -1.36456,6.19613 -4.45869,12.18475 -8.78125,16.8125 -4.4766,4.79268 -10.48306,8.40797 -16.8125,10.125 -6.32943,1.71702 -13.34007,1.62333 -19.625,-0.25 -6.28492,-1.87332 -12.20602,-5.62912 -16.5625,-10.53125 -7.527792,-8.47065 -10.724983,-21.77391 -7.90625,-32.75 2.818731,-10.97608 12.00972,-21.04841 22.6875,-24.84375 A 15.003792,15.003792 0 1 0 105.25,865.8125 c -20.558145,7.30724 -36.291791,24.55504 -41.71875,45.6875 -5.426957,21.13247 0.06909,43.78504 14.5625,60.09375 8.132011,9.15055 18.674475,15.87816 30.40625,19.375 11.73177,3.49685 24.21644,3.64258 36.03125,0.4375 11.8148,-3.20507 22.54999,-9.64749 30.90625,-18.59375 8.35625,-8.94625 14.04467,-20.05682 16.4375,-32.0625 l 0.15625,-0.71875 0.0625,-0.6875 c 1.61983,-15.80451 0.13301,-31.85944 -4.375,-47.09375 -9.34224,-31.57106 -31.59299,-58.51419 -60.8125,-73.6875 a 15.0015,15.0015 0 0 0 -7.1875,-1.8125 z"
       id="path3085"
       inkscape:connector-curvature="0" />
    <rect
       inkscape:tile-y0="37.999983"
       inkscape:tile-x0="26"
       y="855.36218"
       x="103"
       height="47"
       width="47"
       id="use3083"
       style="fill:#000000;fill-opacity:1;stroke:#000000;stroke-width:5;stroke-miterlimit:4;stroke-opacity:1;stroke-dasharray:none" />
    <path
       inkscape:connector-curvature="0"
       id="path3935"
       d="m 119.71875,816.75 c -3.34725,0.0105 -6.67989,1.18127 -9.29829,3.26649 -2.6184,2.08523 -4.50541,5.07126 -5.26487,8.33123 -0.75947,3.25997 -0.38642,6.77252 1.04083,9.80024 1.42726,3.02773 3.89936,5.5508 6.89733,7.03954 21.72283,11.28039 38.8984,32.09146 45.84375,55.5625 1.90219,6.42826 3.08265,13.09279 3.53702,19.80403 l 29.95589,-2.19044 c -0.61774,-8.83615 -2.19325,-17.60292 -4.71166,-26.11359 -9.34224,-31.57106 -31.59299,-58.51419 -60.8125,-73.6875 -2.19503,-1.18967 -4.69082,-1.81904 -7.1875,-1.8125 z"
       style="font-size:medium;font-style:normal;font-variant:normal;font-weight:normal;font-stretch:normal;text-indent:0;text-align:start;text-decoration:none;line-height:normal;letter-spacing:normal;word-spacing:normal;text-transform:none;direction:ltr;block-progression:tb;writing-mode:lr-tb;text-anchor:start;baseline-shift:baseline;color:#000000;fill:#008000;fill-opacity:1;stroke:none;stroke-width:30;marker:none;visibility:visible;display:inline;overflow:visible;enable-background:accumulate;font-family:Sans;-inkscape-font-specification:Sans"
       sodipodi:nodetypes="cssscsccscc" />
    <rect
       inkscape:tile-y0="37.999983"
       inkscape:tile-x0="26"
       y="902.36218"
       x="150"
       height="47"
       width="47"
       id="use3091"
       style="fill:#000000;fill-opacity:1;stroke:#000000;stroke-width:5;stroke-miterlimit:4;stroke-opacity:1;stroke-dasharray:none" />
  </g>
</svg>
